<?xml version="1.0" encoding="UTF-8"?>
<svg width="102px" height="26px" viewBox="0 0 102 26" version="1.1" xmlns="http://www.w3.org/2000/svg" xmlns:xlink="http://www.w3.org/1999/xlink">
    <!-- Generator: Sketch 54.1 (76490) - https://sketchapp.com -->
    <title>Group 251</title>
    <desc>Created with Sketch.</desc>
    <defs>
        <polygon id="path-1" points="6.00883652e-05 0.0531954023 25.9347994 0.0531954023 25.9347994 25.8505598 6.00883652e-05 25.8505598"></polygon>
        <polygon id="path-3" points="0.0946541973 0.0909850575 42.8739499 0.0909850575 42.8739499 22.8427782 0.0946541973 22.8427782"></polygon>
    </defs>
    <g id="Page-1" stroke="none" stroke-width="1" fill="none" fill-rule="evenodd">
        <g id="首页-最新" transform="translate(-137.000000, -32.000000)">
            <g id="Header" transform="translate(0.000000, 20.000000)">
                <g id="Group-251" transform="translate(137.000000, 12.000000)">
                    <g id="编组" transform="translate(0.000000, 0.096230)">
                        <g id="Group-3" transform="translate(0.000000, 0.000000)">
                            <mask id="mask-2" fill="white">
                                <use xlink:href="#path-1"></use>
                            </mask>
                            <g id="Clip-2"></g>
                            <path d="M19.7550115,0.0531804598 L6.17969779,0.0531804598 C2.43138557,0.0531804598 6.00883652e-05,2.47177816 6.00883652e-05,6.20023793 L6.00883652e-05,19.7035023 C6.00883652e-05,23.4319621 2.43138557,25.8505598 6.17969779,25.8505598 L19.7550115,25.8505598 C23.5033237,25.8505598 25.9347994,23.4319621 25.9347994,19.7035023 L25.9347994,6.20023793 C25.9347994,2.47177816 23.5033237,0.0531804598 19.7550115,0.0531804598" id="Fill-1" fill="#EE0000" fill-rule="nonzero" mask="url(#mask-2)"></path>
                        </g>
                        <path d="M10.7872436,12.4433011 C10.882033,12.4891747 10.9959004,12.4486805 11.0420183,12.3543931 C11.0528342,12.3300368 11.0609461,12.3004506 11.0609461,12.2734046 L11.0609461,10.1197379 C11.0609461,9.92742759 11.0020595,9.7396 10.8923982,9.58105977 C10.3160006,8.74741609 10.1058415,7.68933563 10.5480919,6.77814023 C11.318575,5.19064598 13.2908253,4.7883931 14.6082627,5.80941609 C15.7733761,6.70955402 15.9821832,8.37788736 15.0775529,9.53697931 C14.9373968,9.71628966 14.8765573,9.94476092 14.8765573,10.1718874 L14.8765573,12.2734046 C14.8765573,12.3786 14.9605308,12.4621287 15.0662863,12.4621287 C15.09603,12.4621287 15.12322,12.4567494 15.1502598,12.4433011 C17.6678121,11.2464046 18.7355823,8.24355402 17.5296088,5.73664598 C16.3263393,3.22973793 13.3074999,2.17046207 10.7872436,3.3672092 C8.26698733,4.5667954 7.20192106,7.56964598 8.40519057,10.076554 C8.90377378,11.111623 9.74395935,11.9473586 10.7872436,12.4433011" id="Fill-4" fill="#FEFEFE"></path>
                        <path d="M12.7189794,8.36591839 C12.0737806,8.48261954 11.632732,9.08764253 11.632732,9.74003333 L11.632732,12.2733897 L11.632732,17.7994356 C11.632732,18.6141023 12.3718189,19.2588724 13.2184639,19.1058609 C13.8636627,18.9891598 14.3047113,18.3839874 14.3047113,17.731746 L14.3047113,12.2733897 L14.3047113,9.67219425 C14.3047113,8.85782644 13.5656244,8.2129069 12.7189794,8.36591839" id="Fill-6" fill="#FEFEFE"></path>
                        <path d="M22.9326044,13.5047437 L19.2998121,9.89119195 C19.2865926,9.87804253 19.2640595,9.88745632 19.2640595,9.90613448 L19.2640595,14.2978931 C19.2640595,17.8536172 16.2895352,20.7151115 12.6822804,20.556123 C9.28398292,20.4063989 6.67073991,17.4851345 6.67073991,14.1015483 L6.67073991,9.90613448 C6.67073991,9.88745632 6.64820677,9.87804253 6.63483711,9.89119195 L3.00219499,13.5047437 C2.98897555,13.5178931 2.99828925,13.5404563 3.01706686,13.5404563 L4.17016259,13.5404563 C4.1817296,13.5404563 4.19119352,13.5498701 4.19119352,13.5613759 L4.19119352,14.2978931 C4.19119352,19.2192149 8.28336141,23.1889966 13.268142,23.024031 C18.0364542,22.8662379 21.7463099,18.8148701 21.7463099,14.0692724 L21.7463099,13.5613759 C21.7463099,13.5498701 21.7557738,13.5404563 21.7673408,13.5404563 L22.9177325,13.5404563 C22.9365102,13.5404563 22.9458239,13.5178931 22.9326044,13.5047437" id="Fill-8" fill="#FEFEFE"></path>
                    </g>
                    <g id="Group-12" transform="translate(59.036819, 1.590483)">
                        <mask id="mask-4" fill="white">
                            <use xlink:href="#path-3"></use>
                        </mask>
                        <g id="Clip-11"></g>
                        <path d="M18.1420445,6.17647931 L18.1312286,6.17647931 L15.4637558,6.17647931 L13.2585128,6.17647931 C14.6228191,4.4279046 16.4672315,3.10683563 18.5679208,2.37076667 L18.1889134,3.12835287 L19.6759502,3.12835287 L20.4664127,1.55221494 C20.6830312,1.12500805 21.1234789,0.855743678 21.6034348,0.855743678 L25.0793965,0.855743678 L20.2138913,10.5244563 C20.1812934,10.589008 20.2066807,10.6644678 20.2679708,10.6967437 C20.2859973,10.7039161 20.3076292,10.7075023 20.3256557,10.7075023 L33.7672728,10.7075023 L34.5288928,9.19247931 L22.5959443,9.19247931 L23.7691697,6.85875517 C23.985638,6.42796207 24.4260857,6.15854828 24.9060415,6.15854828 L30.0856586,6.15854828 L30.8508839,4.63978966 L25.7363125,4.63978966 L26.9093876,2.30621494 C27.125856,1.87885862 27.5626984,1.60615747 28.0464097,1.60615747 L32.374124,1.60615747 L32.7854289,0.791042529 C33.0020474,0.360249425 33.4424951,0.0909850575 33.922451,0.0909850575 L37.3117352,0.0909850575 L37.3802359,0.126847126 L36.6367926,1.60615747 L41.7513641,1.60615747 L40.578289,3.94331839 C40.3618206,4.37067471 39.9213729,4.63978966 39.4412669,4.63978966 L35.1135526,4.63978966 L34.3484775,6.15854828 L42.8739649,6.15854828 L41.7008898,8.49227241 C41.4842713,8.92321494 41.0439738,9.19247931 40.5638677,9.19247931 L38.7915614,9.19247931 L38.0300916,10.7075023 L42.2927602,10.7075023 L41.11623,13.0448126 C40.9032168,13.4720195 40.4627691,13.7412839 39.9828133,13.7412839 L36.5032462,13.7412839 L32.2802359,22.1427207 C32.0672227,22.5735138 31.6269252,22.8427782 31.1432138,22.8427782 L19.0912904,22.8427782 C19.0190342,22.8427782 18.9649546,22.7853989 18.9649546,22.7172609 L18.9649546,20.1071 C18.9649546,19.913146 19.0082183,19.719192 19.098501,19.5433184 L20.8996498,15.9566632 C21.1162683,15.5293069 21.5529605,15.260192 22.0365216,15.260192 L24.7220209,15.260192 L28.3783979,15.260192 L26.2667426,17.3567782 C25.790392,17.8307552 25.1442919,18.0964333 24.4693493,18.0964333 L24.0867367,18.0964333 L23.5092875,19.2489506 C23.4766895,19.3100655 23.5020769,19.3853759 23.563367,19.4176517 C23.5813935,19.4249736 23.6030253,19.4319966 23.6210518,19.4319966 L28.5986218,19.4319966 C29.0785776,19.4319966 29.5190253,19.159146 29.7354937,18.7319391 L32.2405776,13.7412839 L19.0732639,13.7412839 C18.7843891,13.7412839 18.5209016,13.9029621 18.3909605,14.1614678 L14.3809635,22.1427207 C14.1643449,22.5735138 13.7238972,22.8427782 13.2440916,22.8427782 L0.221140206,22.8427782 C0.148883947,22.8427782 0.0946541973,22.7853989 0.0946541973,22.7172609 L0.0946541973,20.1071 C0.0946541973,19.913146 0.138068041,19.719192 0.22835081,19.5433184 L5.42959971,9.19247931 L5.43681031,9.17798506 L9.26999735,1.55221494 C9.48646568,1.12500805 9.92676318,0.855743678 10.4068692,0.855743678 L13.8792256,0.855743678 L9.68866303,9.19247931 L15.4925982,9.19247931 L13.5472374,11.1239506 C12.5942359,12.0719046 11.3020356,12.6032609 9.95575582,12.6032609 L7.97404153,12.6032609 L4.63538174,19.2489506 C4.60293402,19.3100655 4.62832135,19.3853759 4.68961149,19.4176517 C4.707638,19.4249736 4.72926981,19.4319966 4.74729632,19.4319966 L10.695744,19.4319966 C11.1756999,19.4319966 11.6161476,19.159146 11.8327661,18.7319391 L16.3987308,9.64478966 L18.1420445,6.17647931 Z" id="Fill-10" fill="#1D1E1E" mask="url(#mask-4)"></path>
                    </g>
                    <path d="M38.4782757,11.6015287 L41.9398162,4.71526437 L38.4638545,4.71526437 C37.9802934,4.71526437 37.543451,4.98437931 37.3268324,5.41547126 L33.8654421,12.298 L37.3414038,12.298 C37.8249649,12.298 38.2654127,12.0287356 38.4782757,11.6015287 L38.4782757,11.6015287 Z M47.0037632,11.6015287 L50.4653037,4.71526437 L46.9857367,4.71526437 C46.5057809,4.71526437 46.0653331,4.98437931 45.8523199,5.41547126 L42.3909296,12.298 L45.8668913,12.298 C46.3468471,12.298 46.7872948,12.0287356 47.0037632,11.6015287 L47.0037632,11.6015287 Z M64.4663434,10.7828276 L62.5244377,12.7144483 C61.5715865,13.6624023 60.2793862,14.1937586 58.929501,14.1937586 L57.6336954,14.1937586 L52.836691,23.7332184 C52.623828,24.1640115 52.1833803,24.4332759 51.6996689,24.4332759 L48.2238574,24.4332759 L29.3501019,24.4332759 C29.2778457,24.4332759 29.2237661,24.3758966 29.2237661,24.3077586 L29.2237661,13.3571264 C29.2237661,13.1597356 29.2670297,12.9657816 29.3573125,12.789908 L34.5910091,2.3813908 C34.8038722,1.95074713 35.2443199,1.68148276 35.7242757,1.68148276 L55.8397573,1.68148276 C55.8794156,1.68148276 55.9192242,1.69224138 55.9552772,1.70658621 C56.0780077,1.77113793 56.1322374,1.92190805 56.0671918,2.04772414 L49.5485054,15.0123103 C49.3354922,15.4431034 48.8951947,15.7125172 48.4150887,15.7125172 L34.2480548,15.7125172 C33.8257838,15.7125172 33.4828295,16.0499195 33.4828295,16.469954 L33.4828295,20.8933908 C33.4828295,20.9651149 33.5406645,21.0224943 33.6127705,21.0224943 L49.1550769,21.0224943 C49.6351829,21.0224943 50.0754804,20.7496437 50.292099,20.3224368 L58.9258957,3.14271264 C59.1425143,2.71550575 59.5826616,2.44624138 60.0627676,2.44624138 L63.5387293,2.44624138 L59.3481667,10.7828276 L63.0045437,10.7828276 L64.4663434,10.7828276 Z" id="Fill-13" fill="#1D1E1E"></path>
                    <path d="M63.5386842,2.44616667 L59.3481216,10.7829023" id="Fill-15" fill="#1D1E1E"></path>
                    <path d="M57.6337105,14.1937138 L52.836706,23.7331736" id="Fill-17" fill="#1D1E1E"></path>
                    <path d="M51.699699,24.4332908 C52.1834103,24.4332908 52.6237078,24.1640264 52.8367211,23.7332333" id="Fill-19" fill="#1D1E1E"></path>
                    <path d="M58.9258507,3.14274253 L50.2920539,20.3224667" id="Fill-21" fill="#1D1E1E"></path>
                    <path d="M49.1550318,21.022554 C49.6351378,21.022554 50.0754353,20.7497034 50.2920539,20.3223471" id="Fill-23" fill="#1D1E1E"></path>
                    <path d="M68.3068012,3.14274253 L64.4736141,10.7685126" id="Fill-25" fill="#1D1E1E"></path>
                    <polyline id="Fill-27" fill="#1D1E1E" points="64.4736141 10.7685276 64.4664035 10.7828724 59.2651546 21.1338609"></polyline>
                    <path d="M72.9160595,2.44616667 L68.7254969,10.7829023" id="Fill-29" fill="#1D1E1E"></path>
                    <path d="M67.0109355,14.1937138 L63.6722757,20.8394034" id="Fill-31" fill="#1D1E1E"></path>
                    <path d="M63.6722607,20.8394184 C63.639813,20.9005333 63.6650501,20.9758437 63.7263402,21.0081195 C63.7443667,21.0154414 63.7661487,21.0226138 63.7841753,21.0226138" id="Fill-33" fill="#1D1E1E"></path>
                    <path d="M48.4151487,15.7142304 L34.2479647,15.7142304" id="Fill-35" fill="#1D1E1E"></path>
                    <path d="M49.5484904,15.0122655 L56.0671767,2.04767931" id="Fill-37" fill="#1D1E1E"></path>
                    <path d="M48.4151487,15.7124724 C48.8952548,15.7124724 49.3355523,15.443208 49.5484153,15.0122655" id="Fill-39" fill="#1D1E1E"></path>
                    <path d="M45.8668312,12.2997878 L42.3910197,12.2997878" id="Fill-41" fill="#1D1E1E"></path>
                    <path d="M37.3413437,12.2997878 L33.865382,12.2997878" id="Fill-43" fill="#1D1E1E"></path>
                    <path d="M50.4652887,4.71527931 L47.0038984,11.6015437" id="Fill-45" fill="#1D1E1E"></path>
                    <path d="M45.8668312,12.2980299 C46.3469373,12.2980299 46.7872348,12.0287655 47.0038533,11.6015586" id="Fill-47" fill="#1D1E1E"></path>
                    <path d="M50.4652887,4.71703725 L46.9857216,4.71703725" id="Fill-49" fill="#1D1E1E"></path>
                    <path d="M46.9857817,4.71527931 C46.5056757,4.71527931 46.0653782,4.98439425 45.8523649,5.41548621" id="Fill-51" fill="#1D1E1E"></path>
                    <path d="M45.85238,5.41541149 L42.3909897,12.2980897" id="Fill-53" fill="#1D1E1E"></path>
                    <path d="M41.9398162,4.71527931 L38.4782757,11.6015437" id="Fill-55" fill="#1D1E1E"></path>
                    <path d="M37.3413437,12.2980299 C37.8250551,12.2980299 38.2653526,12.0287655 38.4782156,11.6015586" id="Fill-57" fill="#1D1E1E"></path>
                    <path d="M33.8654421,12.2980299 L37.3268324,5.41535172" id="Fill-59" fill="#1D1E1E"></path>
                    <path d="M38.4638996,4.71527931 C37.9801882,4.71527931 37.543496,4.98439425 37.3268775,5.41548621" id="Fill-61" fill="#1D1E1E"></path>
                    <path d="M38.4638996,4.71703725 L41.9398613,4.71703725" id="Fill-63" fill="#1D1E1E"></path>
                    <path d="M55.8397122,1.68322576 L35.7243809,1.68322576" id="Fill-65" fill="#1D1E1E"></path>
                    <path d="M56.0671767,2.04764943 C56.1322224,1.92198276 56.0779926,1.77121264 55.9552622,1.70651149 C55.9192091,1.69216667 55.8794006,1.68140805 55.8397423,1.68140805" id="Fill-67" fill="#1D1E1E"></path>
                    <path d="M35.7243508,1.68146782 C35.2442448,1.68146782 34.8039473,1.95073218 34.5910842,2.38152529" id="Fill-69" fill="#1D1E1E"></path>
                    <path d="M34.5910091,2.38145057 L29.3573125,12.7899678" id="Fill-71" fill="#1D1E1E"></path>
                    <path d="M49.1550318,21.024312 L33.6128757,21.024312" id="Fill-73" fill="#1D1E1E"></path>
                    <path d="M48.2238574,24.4350487 L29.3501019,24.4350487" id="Fill-75" fill="#1D1E1E"></path>
                    <path d="M29.2237661,24.3079951 C29.2237661,24.3777362 29.2778457,24.4364657 29.3501019,24.4364657" id="Fill-77" fill="#1D1E1E"></path>
                    <path d="M29.2237661,24.3077138 L29.2237661,13.3570816" id="Fill-79" fill="#1D1E1E"></path>
                    <path d="M29.3572675,12.789923 C29.2669847,12.9657966 29.2237211,13.1597506 29.2237211,13.3571414" id="Fill-81" fill="#1D1E1E"></path>
                    <path d="M33.4828445,16.469969 L33.4828445,20.8934057" id="Fill-83" fill="#1D1E1E"></path>
                    <path d="M34.2480247,15.7124724 C33.8257538,15.7124724 33.4827994,16.0498747 33.4827994,16.4699092" id="Fill-85" fill="#1D1E1E"></path>
                    <path d="M33.4828445,20.8935684 C33.4828445,20.9669801 33.5406795,21.0258625 33.6127856,21.0258625" id="Fill-87" fill="#1D1E1E"></path>
                    <path d="M48.2238574,24.4350487 L51.6996689,24.4350487" id="Fill-89" fill="#1D1E1E"></path>
                    <polyline id="Fill-91" fill="#1D1E1E" points="70.8695099 20.3224069 75.4354745 11.2352575 77.1787882 7.76694713 77.1859988 7.7526023"></polyline>
                    <path d="M69.7325178,21.022554 C70.2126239,21.022554 70.6529214,20.7497034 70.8695399,20.3223471" id="Fill-93" fill="#1D1E1E"></path>
                    <path d="M78.7128292,4.71885057 L79.5032916,3.14271264" id="Fill-95" fill="#1D1E1E"></path>
                    <path d="M77.2257323,4.71885057 L77.6047396,3.96126437" id="Fill-97" fill="#1D1E1E"></path>
                    <path d="M59.257899,24.4350487 L72.2808504,24.4350487" id="Fill-99" fill="#1D1E1E"></path>
                    <path d="M63.7841152,21.024312 L69.7325629,21.024312" id="Fill-101" fill="#1D1E1E"></path>
                    <path d="M73.4177673,23.7332184 L77.4277644,15.7518161" id="Fill-103" fill="#1D1E1E"></path>
                    <path d="M72.2808353,24.4332908 C72.7607912,24.4332908 73.2010887,24.1640264 73.4177072,23.7332333" id="Fill-105" fill="#1D1E1E"></path>
                    <path d="M84.1161703,2.44616667 L79.2506651,12.1148793" id="Fill-107" fill="#1D1E1E"></path>
                    <path d="M79.2506351,12.1148943 C79.2181873,12.1795954 79.2434244,12.2549057 79.3047146,12.2871816 C79.3227411,12.294354 79.3445231,12.2980897 79.3625496,12.2980897" id="Fill-109" fill="#1D1E1E"></path>
                    <path d="M80.6402536,2.44792461 L84.1162153,2.44792461" id="Fill-111" fill="#1D1E1E"></path>
                    <path d="M80.6402536,2.44616667 C80.1602978,2.44616667 79.7198501,2.71543103 79.5032315,3.14278736" id="Fill-113" fill="#1D1E1E"></path>
                    <path d="M92.9593149,1.68322576 L96.3485991,1.68322576" id="Fill-115" fill="#1D1E1E"></path>
                    <path d="M92.9593149,1.68146782 C92.4792088,1.68146782 92.0389113,1.95073218 91.8222928,2.38152529" id="Fill-117" fill="#1D1E1E"></path>
                    <path d="M84.7730863,6.23207519 L89.8876577,6.23207519" id="Fill-119" fill="#1D1E1E"></path>
                    <path d="M94.1503865,6.23207519 L98.4781007,6.23207519" id="Fill-121" fill="#1D1E1E"></path>
                    <path d="M93.5657116,10.7846602 L81.6327632,10.7846602" id="Fill-123" fill="#1D1E1E"></path>
                    <path d="M89.8876427,6.23031724 L89.1225676,7.74907586" id="Fill-125" fill="#1D1E1E"></path>
                    <path d="M94.1503865,6.23031724 L93.3853113,7.74907586" id="Fill-127" fill="#1D1E1E"></path>
                    <path d="M89.1225225,7.75084875 L83.9429054,7.75084875" id="Fill-129" fill="#1D1E1E"></path>
                    <path d="M93.3852663,7.75084875 L101.910754,7.75084875" id="Fill-131" fill="#1D1E1E"></path>
                    <path d="M82.8059885,8.44922299 L81.6327632,10.7829471" id="Fill-133" fill="#1D1E1E"></path>
                    <path d="M83.9429054,7.7490908 C83.4627994,7.7490908 83.0225019,8.01835517 82.8060336,8.4492977" id="Fill-135" fill="#1D1E1E"></path>
                    <path d="M97.8284404,10.7846602 L99.6007467,10.7846602" id="Fill-137" fill="#1D1E1E"></path>
                    <path d="M99.6007317,10.7829023 C100.080687,10.7829023 100.520985,10.5136379 100.737604,10.0826954" id="Fill-139" fill="#1D1E1E"></path>
                    <path d="M101.910739,7.7490908 L100.737664,10.0828149" id="Fill-141" fill="#1D1E1E"></path>
                    <path d="M87.0831685,3.1983384 L91.4108828,3.1983384" id="Fill-143" fill="#1D1E1E"></path>
                    <path d="M87.0831685,3.19658046 C86.5994571,3.19658046 86.1627649,3.46943103 85.9461464,3.89663793" id="Fill-145" fill="#1D1E1E"></path>
                    <path d="M95.6736415,3.1983384 L100.788213,3.1983384" id="Fill-147" fill="#1D1E1E"></path>
                    <path d="M100.788198,3.19658046 L99.6151228,5.5338908" id="Fill-149" fill="#1D1E1E"></path>
                    <path d="M98.4781007,6.23031724 C98.9582068,6.23031724 99.3985043,5.96105287 99.6151228,5.53384598" id="Fill-151" fill="#1D1E1E"></path>
                    <polyline id="Fill-153" fill="#1D1E1E" points="96.4352315 1.68146782 96.4170548 1.71732989 95.6736115 3.19664023"></polyline>
                    <path d="M91.8223228,2.38145057 L91.4108677,3.19656552" id="Fill-155" fill="#1D1E1E"></path>
                    <path d="M90.1800928,24.4350487 L78.1280191,24.4350487" id="Fill-157" fill="#1D1E1E"></path>
                    <path d="M87.6354256,21.024312 L82.6578557,21.024312" id="Fill-159" fill="#1D1E1E"></path>
                    <path d="M90.1800928,24.4332908 C90.6638041,24.4332908 91.1039514,24.1640264 91.3169647,23.7332333" id="Fill-161" fill="#1D1E1E"></path>
                    <path d="M92.8041066,12.2997878 L79.3624895,12.2997878" id="Fill-163" fill="#1D1E1E"></path>
                    <path d="M93.5657116,10.7829023 L92.8040916,12.2980747" id="Fill-165" fill="#1D1E1E"></path>
                    <path d="M91.2773364,15.3318414 L88.7724027,20.3223471" id="Fill-167" fill="#1D1E1E"></path>
                    <path d="M87.6354256,21.022554 C88.1153814,21.022554 88.5558292,20.7497034 88.7722975,20.3223471" id="Fill-169" fill="#1D1E1E"></path>
                    <path d="M91.2773364,15.3335993 L78.1101729,15.3335993" id="Fill-171" fill="#1D1E1E"></path>
                    <path d="M78.1101128,15.3318414 C77.821238,15.3318414 77.5577505,15.4935195 77.4278094,15.7518759" id="Fill-173" fill="#1D1E1E"></path>
                    <path d="M97.8284404,10.7829023 L97.0668203,12.2980747" id="Fill-175" fill="#1D1E1E"></path>
                    <path d="M95.5400651,15.3318414 L91.3170548,23.7332782" id="Fill-177" fill="#1D1E1E"></path>
                    <path d="M95.5400651,15.3335993 L99.0196321,15.3335993" id="Fill-179" fill="#1D1E1E"></path>
                    <path d="M99.019572,15.3318414 C99.4995278,15.3318414 99.9399756,15.062577 100.152989,14.6353701" id="Fill-181" fill="#1D1E1E"></path>
                    <path d="M101.329594,12.2980299 L100.152914,14.6353402" id="Fill-183" fill="#1D1E1E"></path>
                    <path d="M97.0668504,12.2997878 L101.329519,12.2997878" id="Fill-185" fill="#1D1E1E"></path>
                    <path d="M79.9364536,17.5471011 L78.1353049,21.1337563" id="Fill-187" fill="#1D1E1E"></path>
                    <path d="M78.1353499,21.1338161 C78.0450672,21.3096897 78.0016533,21.5036437 78.0016533,21.6974483" id="Fill-189" fill="#1D1E1E"></path>
                    <path d="M81.0733856,16.8523729 L83.7587346,16.8523729" id="Fill-191" fill="#1D1E1E"></path>
                    <path d="M81.0733856,16.8506149 C80.5896742,16.8506149 80.1531323,17.1198793 79.9365137,17.5470862" id="Fill-193" fill="#1D1E1E"></path>
                    <path d="M83.1235255,19.6869161 L82.5460763,20.8394333" id="Fill-195" fill="#1D1E1E"></path>
                    <path d="M82.5460312,20.8394184 C82.5135835,20.9005333 82.5388206,20.9758437 82.6001108,21.0081195 C82.6181373,21.0154414 82.6399193,21.0226138 82.6579458,21.0226138" id="Fill-197" fill="#1D1E1E"></path>
                    <path d="M60.0627826,2.44792461 L63.5387443,2.44792461" id="Fill-199" fill="#1D1E1E"></path>
                    <path d="M60.0627826,2.44616667 C59.5826766,2.44616667 59.1425293,2.71543103 58.9259108,3.14278736" id="Fill-201" fill="#1D1E1E"></path>
                    <path d="M69.4437331,2.44792461 L72.9160895,2.44792461" id="Fill-203" fill="#1D1E1E"></path>
                    <path d="M69.4437331,2.44616667 C68.9636271,2.44616667 68.5233296,2.71543103 68.3068613,3.14278736" id="Fill-205" fill="#1D1E1E"></path>
                    <path d="M78.0016984,21.697523 L78.0016984,24.3076839" id="Fill-207" fill="#1D1E1E"></path>
                    <path d="M78.0016984,24.3079951 C78.0016984,24.3777362 78.0559281,24.4364657 78.1280342,24.4364657" id="Fill-209" fill="#1D1E1E"></path>
                    <path d="M59.1315181,21.697523 L59.1315181,24.3076839" id="Fill-211" fill="#1D1E1E"></path>
                    <path d="M59.1315181,24.3079951 C59.1315181,24.3777362 59.1857479,24.4364657 59.2578539,24.4364657" id="Fill-213" fill="#1D1E1E"></path>
                    <path d="M59.2651697,21.1338161 C59.1748869,21.3096897 59.131473,21.5036437 59.131473,21.6974483" id="Fill-215" fill="#1D1E1E"></path>
                    <path d="M85.9461764,3.89665287 L84.7731013,6.23037701" id="Fill-217" fill="#1D1E1E"></path>
                    <path d="M77.2257323,4.72060852 L78.7127691,4.72060852" id="Fill-219" fill="#1D1E1E"></path>
                    <path d="M63.0044837,10.7846602 L59.3481066,10.7846602" id="Fill-221" fill="#1D1E1E"></path>
                    <path d="M58.9294409,14.1954717 L57.6337856,14.1954717" id="Fill-223" fill="#1D1E1E"></path>
                    <polyline id="Fill-225" fill="#1D1E1E" points="77.1788633 7.76872001 77.1680474 7.76872001 74.5005747 7.76872001 72.2953317 7.76872001"></polyline>
                    <path d="M87.4151567,16.8523729 L83.7587797,16.8523729" id="Fill-227" fill="#1D1E1E"></path>
                    <path d="M63.0044837,10.7846602 L64.4662834,10.7846602" id="Fill-229" fill="#1D1E1E"></path>
                    <path d="M74.5294622,10.7846602 L68.725527,10.7846602" id="Fill-231" fill="#1D1E1E"></path>
                    <path d="M83.1235255,19.688674 L83.5061381,19.688674" id="Fill-233" fill="#1D1E1E"></path>
                    <path d="M64.4663434,10.7829023 L62.5244377,12.714523" id="Fill-235" fill="#1D1E1E"></path>
                    <path d="M58.9294409,14.1937138 C60.2793261,14.1937138 61.5715264,13.6623575 62.5245278,12.7145529" id="Fill-237" fill="#1D1E1E"></path>
                    <path d="M68.9925596,14.1954717 L67.0109956,14.1954717" id="Fill-239" fill="#1D1E1E"></path>
                    <path d="M74.5294622,10.7829023 L72.5839511,12.714523" id="Fill-241" fill="#1D1E1E"></path>
                    <path d="M68.9925596,14.1937138 C70.3388395,14.1937138 71.6310398,13.6623575 72.5840412,12.7145529" id="Fill-243" fill="#1D1E1E"></path>
                    <path d="M87.4151567,16.8506149 L85.3036515,18.9473506" id="Fill-245" fill="#1D1E1E"></path>
                    <path d="M83.5061832,19.6869161 C84.1811258,19.6869161 84.8272259,19.4212379 85.3035764,18.9472609" id="Fill-247" fill="#1D1E1E"></path>
                    <path d="M77.6047396,3.96129425 C75.5040504,4.69721379 73.659638,6.01843218 72.2953317,7.7670069" id="Fill-249" fill="#1D1E1E"></path>
                </g>
            </g>
        </g>
    </g>
</svg>